<?xml version="1.0" encoding="utf-8"?>
<!-- Generator: Adobe Illustrator 16.0.0, SVG Export Plug-In . SVG Version: 6.00 Build 0)  -->
<!DOCTYPE svg PUBLIC "-//W3C//DTD SVG 1.1//EN" "http://www.w3.org/Graphics/SVG/1.1/DTD/svg11.dtd">
<svg version="1.1" id="artwork" xmlns="http://www.w3.org/2000/svg" xmlns:xlink="http://www.w3.org/1999/xlink" x="0px" y="0px"
	 width="155px" height="45.926px" viewBox="0 0 155 45.926" enable-background="new 0 0 155 45.926" xml:space="preserve">
<g>
	<path fill="#A6A6A6" d="M149.471,45.924H5.428C2.436,45.924,0,43.48,0,40.488V5.427c0-2.991,2.436-5.425,5.428-5.425h144.042
		c2.989,0,5.514,2.434,5.514,5.425v35.061C154.984,43.48,152.46,45.924,149.471,45.924L149.471,45.924z"/>
	<path d="M153.873,40.488c0,2.432-1.969,4.398-4.402,4.398H5.428c-2.433,0-4.406-1.969-4.406-4.398V5.426
		c0-2.428,1.973-4.402,4.406-4.402h144.042c2.436,0,4.401,1.974,4.401,4.402L153.873,40.488L153.873,40.488z"/>
	<g>
		<g>
			<path fill="#FFFFFF" d="M34.588,22.715c-0.033-3.7,3.03-5.5,3.169-5.584c-1.734-2.53-4.423-2.875-5.368-2.902
				c-2.258-0.239-4.448,1.352-5.599,1.352c-1.173,0-2.944-1.329-4.855-1.29c-2.456,0.037-4.754,1.459-6.015,3.669
				c-2.602,4.502-0.662,11.122,1.831,14.762c1.247,1.783,2.705,3.771,4.61,3.701c1.865-0.074,2.562-1.188,4.814-1.188
				c2.231,0,2.885,1.188,4.83,1.145c2.002-0.031,3.262-1.791,4.467-3.592c1.439-2.041,2.018-4.057,2.041-4.158
				C38.467,28.613,34.626,27.15,34.588,22.715z"/>
			<path fill="#FFFFFF" d="M30.914,11.834c1.003-1.255,1.691-2.962,1.5-4.694c-1.453,0.063-3.268,1.004-4.314,2.231
				c-0.926,1.081-1.752,2.854-1.539,4.521C28.191,14.014,29.867,13.069,30.914,11.834z"/>
		</g>
	</g>
	<g>
		<path fill="#FFFFFF" d="M61.668,36.17H59.06l-1.427-4.488h-4.964l-1.36,4.488H48.77l4.917-15.277h3.038L61.668,36.17z
			 M57.204,29.799l-1.292-3.988c-0.136-0.408-0.392-1.367-0.77-2.877h-0.046c-0.151,0.649-0.393,1.61-0.727,2.877l-1.268,3.988
			H57.204z"/>
		<path fill="#FFFFFF" d="M74.317,30.527c0,1.873-0.507,3.354-1.52,4.441c-0.907,0.967-2.033,1.447-3.378,1.447
			c-1.451,0-2.493-0.52-3.127-1.561h-0.046v5.803h-2.447V28.777c0-1.178-0.032-2.385-0.09-3.625h2.152l0.135,1.746h0.047
			c0.815-1.314,2.054-1.973,3.718-1.973c1.297,0,2.382,0.514,3.251,1.541C73.882,27.498,74.317,28.848,74.317,30.527z
			 M71.824,30.615c0-1.07-0.242-1.957-0.727-2.652c-0.53-0.727-1.24-1.088-2.13-1.088c-0.605,0-1.152,0.201-1.644,0.602
			c-0.491,0.402-0.812,0.928-0.962,1.576c-0.076,0.303-0.115,0.549-0.115,0.746v1.836c0,0.801,0.246,1.477,0.738,2.029
			c0.491,0.553,1.129,0.826,1.915,0.826c0.922,0,1.639-0.355,2.153-1.062C71.565,32.717,71.824,31.777,71.824,30.615z"/>
		<path fill="#FFFFFF" d="M86.988,30.527c0,1.873-0.508,3.354-1.521,4.441c-0.904,0.967-2.031,1.447-3.377,1.447
			c-1.451,0-2.492-0.52-3.127-1.561h-0.045v5.803H76.47V28.777c0-1.178-0.031-2.385-0.09-3.625h2.152l0.138,1.746h0.044
			c0.815-1.314,2.056-1.973,3.718-1.973c1.299,0,2.385,0.514,3.254,1.541C86.553,27.498,86.988,28.848,86.988,30.527z
			 M84.495,30.615c0-1.07-0.243-1.957-0.728-2.652c-0.529-0.727-1.238-1.088-2.131-1.088c-0.604,0-1.152,0.201-1.644,0.602
			c-0.491,0.402-0.812,0.928-0.962,1.576c-0.073,0.303-0.113,0.549-0.113,0.746v1.836c0,0.801,0.246,1.477,0.734,2.029
			c0.49,0.553,1.13,0.826,1.916,0.826c0.924,0,1.641-0.355,2.154-1.062C84.234,32.717,84.495,31.777,84.495,30.615z"/>
		<path fill="#FFFFFF" d="M101.154,31.885c0,1.301-0.452,2.357-1.357,3.174c-0.994,0.891-2.381,1.338-4.161,1.338
			c-1.645,0-2.961-0.316-3.96-0.951l0.567-2.041c1.073,0.65,2.254,0.977,3.539,0.977c0.921,0,1.64-0.207,2.155-0.625
			c0.512-0.416,0.768-0.975,0.768-1.668c0-0.621-0.211-1.143-0.635-1.566c-0.422-0.424-1.125-0.816-2.107-1.18
			c-2.675-0.998-4.011-2.461-4.011-4.383c0-1.256,0.469-2.287,1.405-3.087c0.936-0.803,2.182-1.202,3.74-1.202
			c1.391,0,2.545,0.241,3.467,0.726l-0.612,1.994c-0.859-0.469-1.834-0.701-2.923-0.701c-0.862,0-1.534,0.213-2.018,0.633
			c-0.406,0.378-0.611,0.837-0.611,1.386c0,0.604,0.232,1.104,0.701,1.494c0.408,0.363,1.148,0.758,2.224,1.182
			c1.313,0.527,2.278,1.146,2.901,1.855C100.846,29.943,101.154,30.828,101.154,31.885z"/>
		<path fill="#FFFFFF" d="M109.247,26.988h-2.698v5.352c0,1.357,0.477,2.037,1.43,2.037c0.438,0,0.801-0.035,1.086-0.113
			l0.068,1.859c-0.482,0.18-1.117,0.271-1.904,0.271c-0.967,0-1.723-0.295-2.268-0.885c-0.543-0.59-0.816-1.58-0.816-2.971v-5.553
			h-1.605V25.15h1.605v-2.015l2.404-0.729v2.744h2.698V26.988z"/>
		<path fill="#FFFFFF" d="M121.421,30.57c0,1.691-0.485,3.082-1.45,4.17c-1.015,1.121-2.359,1.678-4.037,1.678
			c-1.617,0-2.904-0.535-3.863-1.607c-0.961-1.07-1.44-2.428-1.44-4.057c0-1.709,0.494-3.105,1.485-4.193
			c0.988-1.088,2.322-1.633,4-1.633c1.615,0,2.918,0.539,3.898,1.611C120.951,27.578,121.421,28.922,121.421,30.57z M118.879,30.65
			c0-1.016-0.218-1.889-0.656-2.613c-0.513-0.881-1.246-1.316-2.199-1.316c-0.98,0-1.729,0.438-2.242,1.316
			c-0.44,0.729-0.655,1.613-0.655,2.66c0,1.016,0.215,1.887,0.655,2.611c0.527,0.877,1.269,1.316,2.224,1.316
			c0.935,0,1.668-0.447,2.196-1.342C118.652,32.545,118.879,31.664,118.879,30.65z"/>
		<path fill="#FFFFFF" d="M129.376,27.307c-0.243-0.045-0.502-0.068-0.772-0.068c-0.86,0-1.525,0.326-1.994,0.977
			c-0.407,0.574-0.612,1.301-0.612,2.176v5.779h-2.446l0.022-7.547c0-1.271-0.032-2.428-0.093-3.467h2.134l0.088,2.105h0.067
			c0.26-0.723,0.666-1.309,1.226-1.746c0.546-0.393,1.134-0.588,1.771-0.588c0.227,0,0.43,0.016,0.611,0.043L129.376,27.307
			L129.376,27.307z"/>
		<path fill="#FFFFFF" d="M140.322,30.141c0,0.439-0.028,0.809-0.09,1.109h-7.342c0.026,1.09,0.383,1.92,1.065,2.496
			c0.617,0.512,1.417,0.77,2.399,0.77c1.088,0,2.08-0.174,2.972-0.52l0.384,1.695c-1.042,0.455-2.273,0.684-3.691,0.684
			c-1.709,0-3.051-0.502-4.026-1.508c-0.974-1.004-1.461-2.354-1.461-4.045c0-1.662,0.454-3.045,1.36-4.148
			c0.949-1.176,2.234-1.766,3.853-1.766c1.587,0,2.789,0.59,3.606,1.766C139.997,27.607,140.322,28.766,140.322,30.141z
			 M137.986,29.506c0.019-0.727-0.144-1.354-0.475-1.881c-0.425-0.686-1.074-1.021-1.951-1.021c-0.801,0-1.451,0.332-1.949,0.998
			c-0.406,0.529-0.648,1.164-0.723,1.904H137.986L137.986,29.506z"/>
	</g>
	<g>
		<g>
			<path fill="#FFFFFF" d="M55.157,13.276c0,0.608-0.226,1.112-0.679,1.513c-0.519,0.468-1.41,0.702-2.672,0.702
				c-0.58,0-1.106-0.031-1.582-0.09V8.018c0.502-0.104,1.125-0.156,1.867-0.156c0.918,0,1.611,0.167,2.082,0.501
				c0.471,0.334,0.705,0.793,0.705,1.381c0,0.356-0.108,0.681-0.324,0.975c-0.217,0.292-0.522,0.509-0.91,0.651v0.033
				c0.422,0.103,0.772,0.304,1.045,0.6C55.002,12.354,55.157,12.777,55.157,13.276z M53.676,9.867c0-0.734-0.488-1.102-1.461-1.102
				c-0.341,0-0.602,0.023-0.788,0.068v2.204h0.741c0.467,0,0.834-0.107,1.104-0.322C53.542,10.5,53.676,10.216,53.676,9.867z
				 M53.9,13.241c0-0.446-0.174-0.783-0.521-1.013c-0.312-0.208-0.724-0.312-1.241-0.312h-0.71v2.618
				c0.148,0.029,0.393,0.045,0.733,0.045c0.508,0,0.913-0.1,1.207-0.301C53.722,14.046,53.9,13.701,53.9,13.241z"/>
			<path fill="#FFFFFF" d="M61.037,15.423h-1.079l-0.09-0.624h-0.032c-0.372,0.498-0.898,0.747-1.581,0.747
				c-0.512,0-0.925-0.164-1.236-0.491c-0.284-0.296-0.423-0.663-0.423-1.101c0-0.662,0.276-1.167,0.831-1.515
				c0.552-0.348,1.33-0.52,2.333-0.512v-0.101c0-0.713-0.375-1.068-1.123-1.068c-0.535,0-1.004,0.134-1.412,0.399l-0.245-0.789
				c0.503-0.312,1.124-0.468,1.857-0.468c1.415,0,2.124,0.746,2.124,2.239v1.993C60.96,14.675,60.987,15.105,61.037,15.423z
				 M59.791,13.565v-0.836c-1.329-0.023-1.992,0.341-1.992,1.091c0,0.284,0.077,0.494,0.232,0.634
				c0.156,0.142,0.351,0.211,0.586,0.211c0.267,0,0.512-0.082,0.739-0.248c0.226-0.167,0.363-0.382,0.415-0.642
				C59.784,13.717,59.791,13.646,59.791,13.565z"/>
			<path fill="#FFFFFF" d="M64.399,8.396c0,0.216-0.07,0.389-0.21,0.524c-0.142,0.134-0.323,0.2-0.548,0.2
				c-0.199,0-0.37-0.069-0.505-0.206c-0.138-0.137-0.208-0.31-0.208-0.518s0.071-0.38,0.213-0.513s0.313-0.201,0.523-0.201
				c0.208,0,0.382,0.068,0.524,0.201C64.33,8.018,64.399,8.189,64.399,8.396z M64.268,15.423h-1.205v-5.412h1.205V15.423z"/>
			<path fill="#FFFFFF" d="M70.814,15.423h-1.358l-0.703-1.135c-0.155-0.254-0.324-0.554-0.511-0.903h-0.023
				c-0.111,0.216-0.282,0.516-0.51,0.903l-0.668,1.135h-1.315l1.847-2.763l-1.781-2.65h1.337l0.679,1.081
				c0.132,0.208,0.3,0.494,0.501,0.858h0.032c0.164-0.32,0.328-0.613,0.492-0.879l0.634-1.059h1.314l-1.792,2.606L70.814,15.423z"/>
			<path fill="#FFFFFF" d="M76.36,15.423h-1.08l-0.089-0.624h-0.033c-0.371,0.498-0.897,0.747-1.581,0.747
				c-0.511,0-0.925-0.164-1.235-0.491c-0.283-0.296-0.423-0.663-0.423-1.101c0-0.662,0.275-1.167,0.83-1.515
				c0.553-0.348,1.331-0.52,2.333-0.512v-0.101c0-0.713-0.374-1.068-1.124-1.068c-0.533,0-1.003,0.134-1.409,0.399l-0.245-0.789
				c0.502-0.312,1.124-0.468,1.857-0.468c1.415,0,2.123,0.746,2.123,2.239v1.993C76.281,14.675,76.308,15.105,76.36,15.423z
				 M75.112,13.565v-0.836c-1.33-0.023-1.992,0.341-1.992,1.091c0,0.284,0.077,0.494,0.233,0.634
				c0.154,0.142,0.351,0.211,0.585,0.211c0.267,0,0.511-0.082,0.738-0.248c0.226-0.167,0.363-0.382,0.416-0.642
				C75.105,13.717,75.112,13.646,75.112,13.565z"/>
			<path fill="#FFFFFF" d="M81.248,11.07c-0.12-0.023-0.244-0.034-0.379-0.034c-0.422,0-0.749,0.16-0.98,0.479
				c-0.201,0.283-0.301,0.639-0.301,1.069v2.84h-1.203l0.012-3.708c0-0.624-0.015-1.191-0.043-1.704H79.4l0.043,1.036h0.035
				c0.123-0.357,0.324-0.643,0.6-0.857c0.266-0.193,0.555-0.29,0.867-0.29c0.113,0,0.216,0.007,0.303,0.022V11.07L81.248,11.07z"/>
			<path fill="#FFFFFF" d="M90.736,15.423h-1.204v-3.1c0-0.955-0.362-1.433-1.089-1.433c-0.356,0-0.646,0.131-0.87,0.394
				c-0.222,0.263-0.335,0.573-0.335,0.927v3.212h-1.202v-3.865c0-0.476-0.015-0.991-0.044-1.549h1.059l0.057,0.846h0.033
				c0.141-0.262,0.348-0.479,0.623-0.653c0.325-0.202,0.69-0.304,1.092-0.304c0.504,0,0.926,0.163,1.258,0.49
				c0.414,0.401,0.623,1,0.623,1.793V15.423L90.736,15.423z"/>
			<path fill="#FFFFFF" d="M96.904,15.423h-1.079l-0.089-0.624h-0.031c-0.372,0.498-0.9,0.747-1.583,0.747
				c-0.513,0-0.927-0.164-1.235-0.491c-0.281-0.296-0.422-0.663-0.422-1.101c0-0.662,0.275-1.167,0.831-1.515
				c0.55-0.348,1.328-0.52,2.331-0.512v-0.101c0-0.713-0.374-1.068-1.123-1.068c-0.533,0-1.005,0.134-1.412,0.399l-0.244-0.789
				c0.504-0.312,1.125-0.468,1.856-0.468c1.417,0,2.123,0.746,2.123,2.239v1.993C96.825,14.675,96.854,15.105,96.904,15.423z
				 M95.658,13.565v-0.836c-1.329-0.023-1.993,0.341-1.993,1.091c0,0.284,0.078,0.494,0.233,0.634
				c0.153,0.142,0.351,0.211,0.586,0.211c0.267,0,0.511-0.082,0.736-0.248c0.225-0.168,0.362-0.382,0.414-0.642
				C95.652,13.717,95.658,13.646,95.658,13.565z"/>
		</g>
	</g>
</g>
</svg>
