<?xml version="1.0" encoding="UTF-8" standalone="no"?>
<!-- Created with Inkscape (http://www.inkscape.org/) -->

<svg
   xmlns:dc="http://purl.org/dc/elements/1.1/"
   xmlns:cc="http://creativecommons.org/ns#"
   xmlns:rdf="http://www.w3.org/1999/02/22-rdf-syntax-ns#"
   xmlns:svg="http://www.w3.org/2000/svg"
   xmlns="http://www.w3.org/2000/svg"
   xmlns:sodipodi="http://sodipodi.sourceforge.net/DTD/sodipodi-0.dtd"
   xmlns:inkscape="http://www.inkscape.org/namespaces/inkscape"
   width="100.86002mm"
   height="67.159531mm"
   viewBox="0 0 100.86002 67.159531"
   version="1.1"
   id="svg5644"
   inkscape:version="0.92.2 5c3e80d, 2017-08-06"
   sodipodi:docname="chuteira.svg">
  <defs
     id="defs5638" />
  <sodipodi:namedview
     id="base"
     pagecolor="#ffffff"
     bordercolor="#666666"
     borderopacity="1.0"
     inkscape:pageopacity="0.0"
     inkscape:pageshadow="2"
     inkscape:zoom="0.11313708"
     inkscape:cx="-370.95101"
     inkscape:cy="-70.927387"
     inkscape:document-units="mm"
     inkscape:current-layer="layer1"
     showgrid="false"
     fit-margin-top="0"
     fit-margin-left="0"
     fit-margin-right="0"
     fit-margin-bottom="0"
     inkscape:window-width="1440"
     inkscape:window-height="791"
     inkscape:window-x="0"
     inkscape:window-y="1"
     inkscape:window-maximized="1" />
  <metadata
     id="metadata5641">
    <rdf:RDF>
      <cc:Work
         rdf:about="">
        <dc:format>image/svg+xml</dc:format>
        <dc:type
           rdf:resource="http://purl.org/dc/dcmitype/StillImage" />
        <dc:title></dc:title>
      </cc:Work>
    </rdf:RDF>
  </metadata>
  <g
     inkscape:label="Layer 1"
     inkscape:groupmode="layer"
     id="layer1"
     transform="translate(-47.450397,-135.9797)">
    <path
       style="fill:#1b0000;fill-opacity:1;stroke:#ffffff;stroke-width:0.26458332;stroke-opacity:1"
       d="m 92.088565,136.10177 4.418855,1.84536 c 0.811879,0.86067 1.623632,1.72109 2.435511,2.58176 3.353189,3.42172 6.719229,6.84157 9.805599,10.50995 l -5.14801,-2.19935 c -2.70155,-3.64618 -5.886528,-6.89351 -9.049055,-10.1353 -0.82085,-0.86736 -1.64205,-1.73506 -2.4629,-2.60242 z m 23.891045,4.41782 4.51032,2.27893 c 0.14815,3.63456 0.41928,7.25434 0.81959,10.86962 l -4.96197,-2.52801 c 3.2e-4,-0.56295 0.005,-1.60285 -0.017,-2.09755 -0.12752,-2.84189 -0.27269,-5.67792 -0.35089,-8.52299 z m 27.39523,3.08508 4.70307,2.99 c -3.29862,2.47225 -6.43536,5.16597 -9.56686,7.84655 -2.63646,2.27983 -1.34645,1.15662 -3.87108,3.3693 l -4.29224,-2.67477 c 2.57699,-2.17898 1.26517,-1.06966 3.93567,-3.32796 3.07726,-2.68122 6.16673,-5.35506 9.09144,-8.20312 z m -75.786065,15.22078 c 0.76644,0.17105 1.55793,0.0935 2.33681,0.18345 2.03495,0.16507 4.06807,0.38959 6.11435,0.24804 1.40673,-0.021 2.80282,0.0782 4.2106,0.0569 1.81407,0.008 3.62794,0.0345 5.44049,0.1142 2.68827,0.13599 5.3689,0.35282 8.04964,0.59376 3.262418,0.14281 6.525065,0.13704 9.790095,0.0935 0.60382,-0.0136 1.20739,-0.0202 1.81126,-0.0279 l -0.0718,-0.0527 c 0.31315,0.0131 0.15139,0.003 0.48369,0.0326 0.0403,0.004 0.0806,0.008 0.12092,0.0119 0.78149,-0.0101 1.56328,-0.0214 2.34456,-0.0444 l 0.43305,0.31471 c 0.18143,0.017 0.36258,0.0367 0.54415,0.0522 2.13216,0.124 4.27037,0.0224 6.40478,0.092 2.90012,0.0645 5.81117,0.0859 8.68991,0.48421 2.41568,0.36247 4.82828,0.7868 7.18767,1.42058 2.84005,1.20403 5.66615,2.68698 7.94836,4.77284 0.66876,0.73121 1.17497,1.58879 1.66604,2.44636 0.48049,0.86241 0.98067,1.72207 1.3622,2.63343 0.22732,0.73564 0.30563,1.46164 0.15658,2.22571 -0.16768,0.77949 -0.46822,1.50416 -1.00304,2.10891 -0.44521,0.5357 -0.92563,1.04128 -1.41645,1.53686 l 0.57619,0.36897 c -0.60897,0.29835 -1.22162,0.58929 -1.83555,0.87695 -0.16851,0.16489 -0.33761,0.33007 -0.50436,0.49609 -1.53197,1.28788 -3.16437,2.53006 -5.03019,3.28921 -0.22588,0.0638 -0.4457,0.1541 -0.67747,0.1912 -0.68964,0.1103 -1.42616,-0.0642 -2.12132,0.0222 l -0.33486,-0.2434 c -2.03367,0.82979 -4.07469,1.6413 -6.11178,2.45774 -10.35969,4.15803 -20.99247,7.57295 -31.592895,11.05152 -3.69795,1.31771 -7.50236,2.31641 -11.20448,3.62096 -1.8144,0.69821 -0.94968,0.3835 -2.59106,0.95343 -1.62658,0.59373 -3.32196,0.812 -5.03587,0.94465 -0.58743,0.0338 -1.17536,0.0591 -1.7632,0.0842 l 1.0294,0.77411 c -1.02701,-0.24112 -2.06647,-0.42265 -3.10111,-0.62838 -0.93041,-0.10618 -1.84136,-0.28009 -2.73265,-0.56637 -2.8617,-1.18686 -5.59767,-2.70906 -8.12198,-4.5067 -0.89143,-0.72507 -1.6014,-1.63896 -2.40037,-2.4567 -0.8614,-0.85284 0.21207,0.24836 -0.65784,-0.78393 -0.10872,-0.12903 -0.25483,-0.22396 -0.35915,-0.35657 -0.36129,-0.45931 -0.54918,-1.06683 -0.80254,-1.58699 -0.72832,-1.19057 -1.47468,-2.38992 -1.97714,-3.69641 -0.58385,-1.43015 -1.37235,-2.76009 -1.95285,-4.19096 -0.57825,-1.06833 -0.81308,-2.30245 -1.05058,-3.48816 -0.25307,-0.4539 -0.1833,-0.94911 -0.2403,-1.43712 -0.0242,-0.20622 -0.0886,-0.40563 -0.1235,-0.6103 -0.0177,-0.12169 -0.0193,-0.24712 -0.0532,-0.36535 -0.0254,-0.0885 -0.0974,-0.15883 -0.12196,-0.24753 -0.0995,-0.35831 -0.0766,-0.80255 -0.0796,-1.17409 -2e-5,-0.006 5.3e-4,-0.0114 5.2e-4,-0.0171 l -1.34979,-0.98134 c 0.46211,0.011 0.21795,0.007 0.73174,0.008 0.21112,0 0.42242,-5.2e-4 0.63355,-0.001 9e-5,-0.041 0.002,-0.082 0.002,-0.12299 0.003,-0.0648 0.0244,-0.1317 0.007,-0.1943 -0.0105,-0.0382 -0.066,-0.0494 -0.0837,-0.0847 -0.0953,-0.19065 -0.0737,-0.45511 -0.16846,-0.63769 -0.0247,-0.0477 -0.0846,-0.0658 -0.12713,-0.0987 -0.0576,-0.3664 -0.037,-0.7314 -0.0222,-1.09968 0.0134,-0.26157 0.0125,-0.52321 0.0165,-0.78496 0.0146,-0.3529 0.0135,-0.70628 0.0155,-1.05937 l 4.9966,2.54662 c 0.002,0.27449 0.004,0.54875 0.008,0.8232 0.3094,-0.0791 0.61654,-0.16537 0.91519,-0.2806 1.23238,-0.54521 2.53765,-0.97191 3.67936,-1.69395 1.06567,-0.42938 2.08403,-0.9724 3.16105,-1.3777 1.38917,-0.58781 2.77741,-1.20652 4.10724,-1.91409 1.05859,-0.42577 2.13072,-0.80218 2.9993,-1.57148 0.6651,-0.70134 1.38618,-1.37435 1.86035,-2.22829 0.57266,-0.85073 1.01058,-1.81922 1.18753,-2.83135 0.0574,-0.43809 0.0678,-0.87569 0.0486,-1.31258 z m 8.81806,3.5543 0.19947,0.0982 c 0.1377,1.14034 0.2558,2.27734 0.0739,3.41633 -0.21345,1.08924 -0.6834,2.13038 -1.30069,3.05098 -0.48623,0.8813 -1.20494,1.60447 -1.90789,2.31459 -0.90097,0.84107 -2.02186,1.30721 -3.1502,1.75183 -1.3619,0.64925 -2.73836,1.26912 -4.11448,1.88774 -1.06087,0.42556 -2.07384,0.95535 -3.11919,1.41438 -1.18208,0.6841 -2.48893,1.10602 -3.73879,1.64538 -0.96297,0.41861 -2.00126,0.61453 -2.98069,0.98185 -0.46154,0.19655 -0.95604,0.27846 -1.45418,0.29766 -0.22772,-0.005 -0.45545,-0.009 -0.68316,-0.014 -7.1e-4,0.076 -0.001,0.1519 -0.003,0.22789 0.0196,0.58101 0.1532,1.12864 0.26665,1.69757 0.12117,0.67234 0.12046,1.36256 0.33693,2.01848 0.23563,1.14869 0.48444,2.30646 1.03198,3.35432 0.63686,1.41082 1.37434,2.77349 1.96784,4.20388 0.57569,1.27381 1.31603,2.4582 2.00918,3.67006 0.49749,0.97717 1.11792,1.83795 1.91822,2.59674 0.48054,0.53884 0.96611,1.08231 1.49552,1.57561 0.71633,0.24585 1.44892,0.43066 2.21175,0.47077 0.73237,0.12388 1.44798,0.32744 2.18385,0.43564 0.10258,0.0151 0.20679,0.0183 0.31057,0.0232 l -0.68936,-0.49919 c 0.67162,0.002 1.34331,0.002 2.01435,-0.0315 1.71011,-0.0894 3.39469,-0.31387 5.04775,-0.77979 3.59279,-1.00335 -1.57598,0.45619 2.76986,-0.83613 3.89027,-1.15684 7.86386,-2.01447 11.729,-3.25975 10.70578,-3.1526 21.363035,-6.5401 31.615115,-10.98434 2.02855,-0.8935 4.07751,-1.76679 6.10919,-2.67839 l -0.49867,-0.36225 c 0.41822,0.007 0.83575,0.0165 1.25262,0.0181 2.36895,-1.078 4.70851,-2.21661 6.95462,-3.51865 0.91432,-0.89024 1.80555,-1.81472 2.58124,-2.82722 0.47554,-0.54841 0.72005,-1.18754 0.82785,-1.89446 0.13761,-0.70519 -0.0129,-1.30521 -0.26768,-1.95698 -0.44887,-0.84454 -0.90336,-1.68532 -1.35341,-2.52957 -0.41383,-0.52012 -0.67312,-1.15797 -1.0945,-1.67069 -0.0415,-0.0505 -0.13395,-0.13912 -0.21601,-0.22015 -2.02214,-0.61189 -4.123,-0.95504 -6.20376,-1.30121 -2.85454,-0.42069 -5.74267,-0.50103 -8.62324,-0.52813 -2.11162,-0.0365 -4.22483,0.0493 -6.33554,-0.0212 -1.11215,-0.0499 -2.22027,-0.16061 -3.33105,-0.23151 -0.31041,-0.0167 -0.15892,-0.008 -0.45423,-0.0269 l -0.10594,-0.078 c -0.61305,-0.008 -1.22616,-0.0144 -1.83917,-0.0274 -0.50306,-0.002 -1.00596,-0.006 -1.50894,-0.008 0.0637,0.0739 0.12252,0.153 0.16898,0.24546 0.18128,0.35498 0.35392,0.71246 0.56844,1.04955 0.21802,0.45912 0.44829,0.91753 0.63097,1.387 0.0252,0.40118 -0.0193,0.80289 -0.10387,1.19579 -0.13981,0.6909 -0.25674,1.37896 -0.36587,2.07532 -0.2901,1.08029 -0.66747,2.13995 -1.0573,3.1874 -0.43354,0.98415 -0.93127,1.94842 -1.60457,2.7926 l -3.39772,-2.03088 c 0.73714,-0.75282 1.22513,-1.69573 1.64383,-2.65204 0.39112,-1.02689 0.73742,-2.08064 0.98133,-3.1533 0.10405,-0.35706 0.0658,-0.73777 0.12609,-1.09967 0.054,-0.32448 0.14694,-0.64151 0.19637,-0.96893 0.0262,-0.35613 0.12853,-0.74036 0.0217,-1.08882 -0.0467,-0.0299 -0.10751,-0.0454 -0.14056,-0.0899 -0.0648,-0.0873 -0.12702,-0.37236 -0.16485,-0.46406 -0.0553,-0.13409 -0.12107,-0.26767 -0.19017,-0.39946 -1.88899,-0.0144 -3.777597,-0.0389 -5.666312,-0.0997 -0.575678,-0.0367 -1.150707,-0.08 -1.725993,-0.12092 l 1.346171,0.60564 c 0.162261,0.28048 0.318796,0.56442 0.42478,0.8723 0.366557,0.78585 0.688589,1.60905 0.766879,2.47995 0.0496,0.95436 -0.03984,1.89473 -0.413411,2.78588 -0.446175,0.93275 -1.023919,1.85168 -1.810227,2.53111 -0.629398,0.59376 -0.897092,0.72755 -1.657782,1.06816 -0.0865,0.0388 -0.16576,0.092 -0.24856,0.13797 l -3.29489,-2.20762 c 0.70854,-0.23494 1.32894,-0.57421 1.90324,-1.04748 0.76558,-0.63236 1.3074,-1.50577 1.72186,-2.39985 0.34482,-0.84212 0.37448,-1.72266 0.32298,-2.61535 -0.002,-0.46258 -0.23673,-0.84496 -0.37517,-1.27227 -0.0401,-0.12377 -0.0619,-0.25404 -0.11317,-0.37362 -0.10153,-0.23671 -0.24096,-0.45579 -0.3483,-0.68988 -1.22545,-0.0879 -2.45159,-0.16756 -3.67885,-0.23048 l 0.0677,0.0346 c -0.004,0.49016 0.003,0.98055 0.006,1.47071 0.008,0.44232 0.0282,0.88419 0.0119,1.32653 -0.0217,0.80276 -0.0812,1.60603 -0.23047,2.39624 -0.26128,1.25086 -0.66226,2.44503 -1.44074,3.47937 -0.5749,0.76193 -1.165,1.51983 -2.05466,1.92443 l -3.25561,-2.26911 c 0.88808,-0.20396 1.45718,-0.94686 1.98902,-1.63091 0.75066,-0.98666 1.14273,-2.1159 1.35754,-3.32176 0.12264,-0.78454 0.13551,-1.57847 0.12351,-2.3704 -0.0192,-0.38197 -0.0163,-0.7639 -0.0139,-1.14618 -0.89541,-0.0107 -1.79073,-0.013 -2.68614,-0.0145 -1.40816,0.049 -2.81242,-0.0424 -4.21938,-0.0646 -1.35453,0.0409 -2.7048,-0.0115 -4.05453,-0.0904 z m -15.84451,34.91312 c -0.0197,-0.002 0.41937,0.28345 0.58808,0.37155 0.10132,0.0529 0.207,0.0979 0.31264,0.14314 -0.30289,-0.17328 -0.52632,-0.30508 -0.86248,-0.49506 -0.0237,-0.0134 -0.0354,-0.0194 -0.0382,-0.0196 z"
       id="path5648"
       inkscape:connector-curvature="0" />
  </g>
</svg>
