<?xml version="1.0" encoding="UTF-8" standalone="no"?>
<!-- Generator: Adobe Illustrator 16.0.0, SVG Export Plug-In . SVG Version: 6.00 Build 0)  -->

<svg
   xmlns:dc="http://purl.org/dc/elements/1.1/"
   xmlns:cc="http://creativecommons.org/ns#"
   xmlns:rdf="http://www.w3.org/1999/02/22-rdf-syntax-ns#"
   xmlns:svg="http://www.w3.org/2000/svg"
   xmlns="http://www.w3.org/2000/svg"
   xmlns:sodipodi="http://sodipodi.sourceforge.net/DTD/sodipodi-0.dtd"
   xmlns:inkscape="http://www.inkscape.org/namespaces/inkscape"
   version="1.1"
   id="Capa_1"
   x="0px"
   y="0px"
   width="250.70615"
   height="310.01642"
   viewBox="0 0 250.70615 310.01642"
   xml:space="preserve"
   inkscape:version="0.91 r13725"
   sodipodi:docname="escudo.svg"><metadata
     id="metadata45"><rdf:RDF><cc:Work
         rdf:about=""><dc:format>image/svg+xml</dc:format><dc:type
           rdf:resource="http://purl.org/dc/dcmitype/StillImage" /><dc:title></dc:title></cc:Work></rdf:RDF></metadata><defs
     id="defs43" /><sodipodi:namedview
     pagecolor="#ffffff"
     bordercolor="#666666"
     borderopacity="1"
     objecttolerance="10"
     gridtolerance="10"
     guidetolerance="10"
     inkscape:pageopacity="0"
     inkscape:pageshadow="2"
     inkscape:window-width="1366"
     inkscape:window-height="705"
     id="namedview41"
     showgrid="false"
     fit-margin-top="0"
     fit-margin-left="0"
     fit-margin-right="0"
     fit-margin-bottom="0"
     inkscape:zoom="0.73836527"
     inkscape:cx="-74.41255"
     inkscape:cy="155.0082"
     inkscape:window-x="-8"
     inkscape:window-y="-8"
     inkscape:window-maximized="1"
     inkscape:current-layer="g5" /><g
     id="g3"
     transform="translate(-34.459425,-4.8042989)"><g
       id="g5"><path
         d="M 42.379071,178.23095 C 7.8689274,258.1864 138.97876,259.4665 157.63135,309.94767 c 2.39828,6.49738 1.97035,6.49738 4.36863,0 C 180.65527,259.4665 311.7624,258.1864 277.25497,178.23095 246.36592,106.64592 273.707,65.695831 283.74831,53.967101 c 1.76044,-2.055726 1.94325,-5.228539 0.19636,-7.309556 L 252.87552,9.567383 c -1.74691,-2.0768017 -4.93739,-2.5896787 -7.23679,-1.3461266 -31.42123,17.0008286 -69.0853,2.9578266 -81.57226,-2.6234031 -2.36713,-1.0580725 -6.13178,-1.0580725 -8.50567,0 C 143.07248,11.179083 105.40979,25.22911 73.988544,8.2212564 71.69184,6.9777043 68.487829,7.4905813 66.751759,9.567383 L 35.678545,46.65895 c -1.74284,2.081017 -1.562733,5.25383 0.193651,7.309554 10.06162,11.727327 37.405394,52.677416 6.506875,124.262446 z"
         id="path9"
         inkscape:connector-curvature="0"
         style="fill:#cccccc;fill-opacity:0.8;stroke:none;stroke-opacity:1" /></g></g><g
     id="g11"
     transform="translate(-34.459425,-4.8042989)" /><g
     id="g13"
     transform="translate(-34.459425,-4.8042989)" /><g
     id="g15"
     transform="translate(-34.459425,-4.8042989)" /><g
     id="g17"
     transform="translate(-34.459425,-4.8042989)" /><g
     id="g19"
     transform="translate(-34.459425,-4.8042989)" /><g
     id="g21"
     transform="translate(-34.459425,-4.8042989)" /><g
     id="g23"
     transform="translate(-34.459425,-4.8042989)" /><g
     id="g25"
     transform="translate(-34.459425,-4.8042989)" /><g
     id="g27"
     transform="translate(-34.459425,-4.8042989)" /><g
     id="g29"
     transform="translate(-34.459425,-4.8042989)" /><g
     id="g31"
     transform="translate(-34.459425,-4.8042989)" /><g
     id="g33"
     transform="translate(-34.459425,-4.8042989)" /><g
     id="g35"
     transform="translate(-34.459425,-4.8042989)" /><g
     id="g37"
     transform="translate(-34.459425,-4.8042989)" /><g
     id="g39"
     transform="translate(-34.459425,-4.8042989)" /></svg>