<?xml version="1.0" encoding="utf-8"?>
<!-- Generator: Adobe Illustrator 16.0.0, SVG Export Plug-In . SVG Version: 6.00 Build 0)  -->
<!DOCTYPE svg PUBLIC "-//W3C//DTD SVG 1.1//EN" "http://www.w3.org/Graphics/SVG/1.1/DTD/svg11.dtd">
<svg version="1.1" id="artwork" xmlns="http://www.w3.org/2000/svg" xmlns:xlink="http://www.w3.org/1999/xlink" x="0px" y="0px"
	 width="155px" height="45.926px" viewBox="0 0 155 45.926" enable-background="new 0 0 155 45.926" xml:space="preserve">
<g>
	<path d="M149.259,45.926H5.741C2.583,45.926,0,43.343,0,40.186V5.741c0-3.157,2.583-5.74,5.741-5.74h143.518
		c3.158,0,5.741,2.583,5.741,5.74v34.445C155,43.343,152.417,45.926,149.259,45.926z"/>
</g>
<g>
	<g>
		<path fill="#A6A6A6" d="M149.259,0.918c2.66,0,4.823,2.164,4.823,4.822v34.446c0,2.658-2.163,4.821-4.823,4.821H5.741
			c-2.659,0-4.822-2.163-4.822-4.821V5.741c0-2.658,2.163-4.822,4.822-4.822L149.259,0.918 M149.259,0H5.741
			C2.583,0,0,2.583,0,5.741v34.445c0,3.157,2.583,5.74,5.741,5.74h143.518c3.158,0,5.741-2.583,5.741-5.74V5.741
			C155,2.583,152.417,0,149.259,0L149.259,0z"/>
	</g>
</g>
<path fill="#FFFFFF" d="M78.23,24.974c-2.706,0-4.901,2.054-4.901,4.884c0,2.812,2.201,4.883,4.901,4.883
	c2.699,0,4.897-2.067,4.897-4.883C83.131,27.027,80.932,24.974,78.23,24.974z M78.23,32.816c-1.48,0-2.756-1.221-2.756-2.959
	c0-1.758,1.277-2.961,2.756-2.961c1.479,0,2.756,1.203,2.756,2.961C80.986,31.597,79.71,32.816,78.23,32.816z M67.536,24.974
	c-2.7,0-4.901,2.054-4.901,4.884c0,2.812,2.201,4.883,4.901,4.883c2.702,0,4.902-2.067,4.902-4.883
	C72.438,27.027,70.238,24.974,67.536,24.974z M67.536,32.816c-1.479,0-2.755-1.221-2.755-2.959c0-1.758,1.277-2.961,2.755-2.961
	c1.48,0,2.756,1.203,2.756,2.961C70.293,31.597,69.016,32.816,67.536,32.816z M54.817,26.473v2.071h4.958
	c-0.148,1.165-0.536,2.017-1.128,2.604c-0.721,0.724-1.85,1.52-3.829,1.52c-3.052,0-5.438-2.46-5.438-5.514
	c0-3.053,2.386-5.515,5.438-5.515c1.646,0,2.849,0.647,3.736,1.48l1.461-1.464c-1.24-1.186-2.885-2.092-5.197-2.092
	c-4.181,0-7.695,3.403-7.695,7.584c0,4.183,3.515,7.584,7.695,7.584c2.256,0,3.958-0.738,5.29-2.127
	c1.368-1.369,1.794-3.293,1.794-4.848c0-0.479-0.037-0.926-0.112-1.294h-6.973V26.473z M106.837,28.081
	c-0.405-1.093-1.646-3.107-4.18-3.107c-2.515,0-4.607,1.979-4.607,4.884c0,2.737,2.073,4.883,4.849,4.883
	c2.235,0,3.531-1.365,4.068-2.16l-1.665-1.11c-0.554,0.812-1.313,1.353-2.403,1.353c-1.092,0-1.869-0.498-2.363-1.479l6.525-2.7
	L106.837,28.081z M100.178,29.709c-0.055-1.889,1.463-2.852,2.555-2.852c0.854,0,1.572,0.429,1.812,1.037L100.178,29.709z
	 M94.87,34.443h2.146V20.091H94.87V34.443z M91.354,26.066h-0.067c-0.479-0.57-1.407-1.093-2.571-1.093
	c-2.438,0-4.68,2.146-4.68,4.902c0,2.735,2.232,4.862,4.68,4.862c1.166,0,2.092-0.521,2.571-1.106h0.067v0.703
	c0,1.867-0.996,2.862-2.604,2.862c-1.312,0-2.127-0.938-2.461-1.734l-1.868,0.775c0.537,1.293,1.96,2.888,4.329,2.888
	c2.518,0,4.646-1.479,4.646-5.088v-8.771h-2.035v0.795h-0.004v0.002L91.354,26.066L91.354,26.066z M88.896,32.816
	c-1.479,0-2.725-1.235-2.725-2.938c0-1.725,1.24-2.979,2.725-2.979c1.461,0,2.604,1.258,2.604,2.979
	C91.502,31.578,90.355,32.816,88.896,32.816z M116.889,20.091h-5.134v14.353h2.142v-5.438h2.99c2.375,0,4.711-1.718,4.711-4.457
	C121.598,21.812,119.264,20.091,116.889,20.091z M116.943,27.009h-3.047V22.09h3.047c1.602,0,2.511,1.326,2.511,2.46
	C119.454,25.661,118.545,27.009,116.943,27.009z M130.186,24.947c-1.553,0-3.158,0.686-3.824,2.197l1.902,0.793
	c0.405-0.793,1.163-1.056,1.957-1.056c1.107,0,2.233,0.665,2.254,1.851v0.146c-0.39-0.224-1.22-0.556-2.232-0.556
	c-2.053,0-4.139,1.125-4.139,3.229c0,1.92,1.685,3.157,3.563,3.157c1.438,0,2.233-0.646,2.731-1.403h0.072v1.107h2.066v-5.5
	C134.542,26.369,132.639,24.947,130.186,24.947z M129.925,32.814c-0.7,0-1.68-0.353-1.68-1.221c0-1.107,1.219-1.531,2.271-1.531
	c0.94,0,1.385,0.202,1.957,0.479C132.307,31.872,131.162,32.814,129.925,32.814z M142.075,25.262l-2.456,6.223h-0.073l-2.549-6.223
	h-2.308l3.816,8.697l-2.179,4.838h2.231l5.895-13.535H142.075z M122.779,34.443h2.142V20.091h-2.142V34.443z"/>
<g>
	
		<linearGradient id="SVGID_1_" gradientUnits="userSpaceOnUse" x1="-589.9653" y1="-2186.1816" x2="-609.2358" y2="-2205.4521" gradientTransform="matrix(1 0 0 -1 615 -2176.1855)">
		<stop  offset="0" style="stop-color:#00A0FF"/>
		<stop  offset="0.0066" style="stop-color:#00A1FF"/>
		<stop  offset="0.2601" style="stop-color:#00BEFF"/>
		<stop  offset="0.5122" style="stop-color:#00D2FF"/>
		<stop  offset="0.7604" style="stop-color:#00DFFF"/>
		<stop  offset="1" style="stop-color:#00E3FF"/>
	</linearGradient>
	<path fill="url(#SVGID_1_)" d="M11.982,8.655c-0.334,0.354-0.531,0.903-0.531,1.613v25.394c0,0.713,0.197,1.26,0.531,1.611
		l0.085,0.084l14.225-14.229v-0.166v-0.167L12.067,8.571L11.982,8.655z"/>
	
		<linearGradient id="SVGID_2_" gradientUnits="userSpaceOnUse" x1="-576.1548" y1="-2199.1494" x2="-603.9331" y2="-2199.1494" gradientTransform="matrix(1 0 0 -1 615 -2176.1855)">
		<stop  offset="0" style="stop-color:#FFE000"/>
		<stop  offset="0.4087" style="stop-color:#FFBD00"/>
		<stop  offset="0.7754" style="stop-color:#FFA500"/>
		<stop  offset="1" style="stop-color:#FF9C00"/>
	</linearGradient>
	<path fill="url(#SVGID_2_)" d="M31.032,27.874l-4.74-4.742v-0.168v-0.167l4.742-4.742l0.107,0.061l5.618,3.192
		c1.604,0.911,1.604,2.402,0,3.314l-5.618,3.19L31.032,27.874z"/>
	
		<linearGradient id="SVGID_3_" gradientUnits="userSpaceOnUse" x1="-586.4893" y1="-2201.7803" x2="-612.6185" y2="-2227.9097" gradientTransform="matrix(1 0 0 -1 615 -2176.1855)">
		<stop  offset="0" style="stop-color:#FF3A44"/>
		<stop  offset="1" style="stop-color:#C31162"/>
	</linearGradient>
	<path fill="url(#SVGID_3_)" d="M31.14,27.814l-4.85-4.851l-14.308,14.31c0.528,0.562,1.402,0.629,2.386,0.07L31.14,27.814"/>
	
		<linearGradient id="SVGID_4_" gradientUnits="userSpaceOnUse" x1="-606.6177" y1="-2176.3901" x2="-594.9512" y2="-2188.0564" gradientTransform="matrix(1 0 0 -1 615 -2176.1855)">
		<stop  offset="0" style="stop-color:#32A071"/>
		<stop  offset="0.0685" style="stop-color:#2DA771"/>
		<stop  offset="0.4762" style="stop-color:#15CF74"/>
		<stop  offset="0.8009" style="stop-color:#06E775"/>
		<stop  offset="1" style="stop-color:#00F076"/>
	</linearGradient>
	<path fill="url(#SVGID_4_)" d="M31.14,18.113L14.368,8.585c-0.984-0.56-1.858-0.489-2.386,0.07l14.31,14.311L31.14,18.113z"/>
	<g>
		<path opacity="0.2" enable-background="new    " d="M31.033,27.707l-16.665,9.47c-0.933,0.529-1.766,0.494-2.301,0.013l0,0
			l-0.085,0.086l0,0l0.085,0.082l0,0c0.535,0.482,1.369,0.521,2.301-0.014l16.772-9.527L31.033,27.707z"/>
		<path opacity="0.12" enable-background="new    " d="M11.982,37.107c-0.334-0.354-0.531-0.899-0.531-1.609v0.165
			c0,0.711,0.197,1.26,0.531,1.61l0.085-0.084L11.982,37.107z"/>
	</g>
	<path opacity="0.12" enable-background="new    " d="M36.758,24.454l-5.725,3.253l0.107,0.104l5.618-3.188
		c0.802-0.456,1.203-1.059,1.203-1.657l0,0C37.894,23.509,37.485,24.039,36.758,24.454z"/>
	<path opacity="0.25" fill="#FFFFFF" enable-background="new    " d="M14.368,8.753l22.39,12.721
		c0.728,0.414,1.135,0.946,1.203,1.49l0,0c0-0.603-0.4-1.202-1.203-1.658L14.368,8.584c-1.605-0.911-2.917-0.154-2.917,1.683v0.168
		C11.451,8.599,12.763,7.841,14.368,8.753z"/>
</g>
<g>
	<path fill="#FFFFFF" stroke="#FFFFFF" stroke-width="0.2" stroke-miterlimit="10" d="M47.462,14.926V8.037h2.107
		c1.059,0,1.905,0.318,2.542,0.958c0.634,0.638,0.951,1.466,0.951,2.486s-0.317,1.849-0.951,2.487
		c-0.637,0.639-1.482,0.958-2.542,0.958H47.462L47.462,14.926z M48.346,14.08h1.222c0.794,0,1.425-0.229,1.89-0.685
		c0.465-0.455,0.697-1.094,0.697-1.914c0-0.813-0.231-1.451-0.697-1.911c-0.465-0.458-1.095-0.688-1.89-0.688h-1.222V14.08z"/>
	<path fill="#FFFFFF" stroke="#FFFFFF" stroke-width="0.2" stroke-miterlimit="10" d="M54.304,14.926V8.037h0.885v6.889H54.304z"/>
	<path fill="#FFFFFF" stroke="#FFFFFF" stroke-width="0.2" stroke-miterlimit="10" d="M58.709,15.08c-0.5,0-0.988-0.163-1.466-0.49
		c-0.479-0.327-0.791-0.787-0.938-1.377l0.809-0.327c0.096,0.378,0.292,0.697,0.591,0.957c0.3,0.259,0.634,0.389,1.006,0.389
		c0.385,0,0.714-0.101,0.986-0.304c0.272-0.202,0.408-0.478,0.408-0.823c0-0.385-0.136-0.681-0.408-0.89s-0.704-0.403-1.294-0.583
		c-0.61-0.192-1.072-0.44-1.386-0.745c-0.313-0.304-0.472-0.693-0.472-1.169c0-0.493,0.196-0.923,0.588-1.29
		c0.391-0.366,0.901-0.548,1.529-0.548c0.584,0,1.059,0.146,1.424,0.438c0.365,0.292,0.603,0.61,0.712,0.958l-0.807,0.336
		c-0.058-0.217-0.201-0.42-0.428-0.605c-0.227-0.187-0.521-0.279-0.882-0.279c-0.34,0-0.63,0.094-0.87,0.284
		c-0.241,0.188-0.36,0.424-0.36,0.707c0,0.257,0.111,0.473,0.332,0.649c0.222,0.176,0.548,0.336,0.977,0.477
		c0.34,0.109,0.624,0.215,0.853,0.319c0.228,0.102,0.458,0.238,0.692,0.408c0.234,0.17,0.41,0.383,0.529,0.635
		c0.12,0.253,0.179,0.547,0.179,0.881s-0.069,0.632-0.207,0.894c-0.138,0.265-0.321,0.473-0.55,0.626
		c-0.228,0.153-0.472,0.271-0.736,0.352S58.985,15.08,58.709,15.08z"/>
	<path fill="#FFFFFF" stroke="#FFFFFF" stroke-width="0.2" stroke-miterlimit="10" d="M63.165,14.926H62.28V8.037h2.348
		c0.583,0,1.088,0.193,1.514,0.582c0.427,0.388,0.641,0.877,0.641,1.467s-0.214,1.078-0.641,1.466
		c-0.426,0.388-0.932,0.582-1.514,0.582h-1.462L63.165,14.926L63.165,14.926z M63.165,11.289h1.482c0.372,0,0.671-0.124,0.895-0.375
		c0.224-0.25,0.336-0.526,0.336-0.828c0-0.303-0.113-0.577-0.336-0.828s-0.522-0.376-0.895-0.376h-1.482V11.289z"/>
	<path fill="#FFFFFF" stroke="#FFFFFF" stroke-width="0.2" stroke-miterlimit="10" d="M73.531,14.036
		c-0.677,0.695-1.519,1.043-2.526,1.043c-1.007,0-1.849-0.349-2.525-1.043c-0.677-0.696-1.015-1.549-1.015-2.556
		c0-1.007,0.338-1.858,1.015-2.555c0.676-0.696,1.518-1.044,2.525-1.044c1.001,0,1.841,0.35,2.521,1.049
		c0.679,0.7,1.019,1.549,1.019,2.55C74.545,12.488,74.207,13.34,73.531,14.036z M69.133,13.459c0.51,0.517,1.134,0.773,1.872,0.773
		c0.738,0,1.363-0.258,1.872-0.773c0.51-0.518,0.766-1.176,0.766-1.978c0-0.802-0.256-1.46-0.766-1.978
		c-0.509-0.517-1.133-0.773-1.872-0.773c-0.738,0-1.361,0.258-1.872,0.773c-0.508,0.517-0.765,1.176-0.765,1.978
		C68.368,12.283,68.625,12.942,69.133,13.459z"/>
	<path fill="#FFFFFF" stroke="#FFFFFF" stroke-width="0.2" stroke-miterlimit="10" d="M75.788,14.926V8.037h1.077l3.348,5.357h0.039
		l-0.039-1.328v-4.03h0.885v6.889h-0.923l-3.503-5.619h-0.038l0.038,1.328v4.292H75.788z"/>
	<path fill="#FFFFFF" stroke="#FFFFFF" stroke-width="0.2" stroke-miterlimit="10" d="M82.677,14.926V8.037h0.886v6.889H82.677z
		 M83.503,7.499h-0.769l0.5-1.232h0.963L83.503,7.499z"/>
	<path fill="#FFFFFF" stroke="#FFFFFF" stroke-width="0.2" stroke-miterlimit="10" d="M86.842,14.926l-2.424-6.889h0.98l1.888,5.59
		h0.038l1.962-5.59h0.981l-2.502,6.889H86.842z"/>
	<path fill="#FFFFFF" stroke="#FFFFFF" stroke-width="0.2" stroke-miterlimit="10" d="M95.291,8.883h-3.137v2.184h2.828v0.828
		h-2.828v2.185h3.137v0.847H91.27V8.038h4.021V8.883z"/>
	<path fill="#FFFFFF" stroke="#FFFFFF" stroke-width="0.2" stroke-miterlimit="10" d="M96.677,14.926V8.037h0.886v6.043h2.981v0.846
		H96.677z"/>
	<path fill="#FFFFFF" stroke="#FFFFFF" stroke-width="0.2" stroke-miterlimit="10" d="M103.971,14.926V8.037h1.076l3.348,5.357
		h0.039l-0.039-1.328v-4.03h0.891v6.889h-0.93l-3.502-5.619h-0.039l0.039,1.328v4.292H103.971z"/>
	<path fill="#FFFFFF" stroke="#FFFFFF" stroke-width="0.2" stroke-miterlimit="10" d="M116.49,14.036
		c-0.678,0.695-1.52,1.043-2.526,1.043c-1.006,0-1.849-0.349-2.524-1.043c-0.676-0.696-1.016-1.549-1.016-2.556
		c0-1.007,0.34-1.858,1.016-2.555c0.681-0.696,1.521-1.044,2.524-1.044c1.001,0,1.843,0.35,2.521,1.049
		c0.685,0.7,1.021,1.549,1.021,2.55C117.505,12.488,117.166,13.34,116.49,14.036z M112.093,13.459
		c0.511,0.517,1.134,0.773,1.871,0.773c0.739,0,1.362-0.258,1.871-0.773c0.511-0.518,0.767-1.176,0.767-1.978
		c0-0.802-0.256-1.46-0.767-1.978c-0.509-0.517-1.132-0.773-1.871-0.773c-0.737,0-1.36,0.258-1.871,0.773
		c-0.51,0.517-0.765,1.176-0.765,1.978C111.328,12.283,111.583,12.942,112.093,13.459z"/>
</g>
</svg>
