<?xml version="1.0" encoding="UTF-8" standalone="no"?>
<!-- Created with Inkscape (http://www.inkscape.org/) -->

<svg
   xmlns:dc="http://purl.org/dc/elements/1.1/"
   xmlns:cc="http://creativecommons.org/ns#"
   xmlns:rdf="http://www.w3.org/1999/02/22-rdf-syntax-ns#"
   xmlns:svg="http://www.w3.org/2000/svg"
   xmlns="http://www.w3.org/2000/svg"
   xmlns:sodipodi="http://sodipodi.sourceforge.net/DTD/sodipodi-0.dtd"
   xmlns:inkscape="http://www.inkscape.org/namespaces/inkscape"
   width="10.049334mm"
   height="10.049334mm"
   viewBox="0 0 35.607875 35.607875"
   id="svg2"
   version="1.1"
   inkscape:version="0.91 r13725"
   sodipodi:docname="jogador.svg">
  <defs
     id="defs4" />
  <sodipodi:namedview
     id="base"
     pagecolor="#ffffff"
     bordercolor="#666666"
     borderopacity="1.0"
     inkscape:pageopacity="0.0"
     inkscape:pageshadow="2"
     inkscape:zoom="11.2"
     inkscape:cx="16.432851"
     inkscape:cy="17.265703"
     inkscape:document-units="px"
     inkscape:current-layer="layer1"
     showgrid="false"
     fit-margin-top="0"
     fit-margin-left="0"
     fit-margin-right="0"
     fit-margin-bottom="0"
     inkscape:window-width="1366"
     inkscape:window-height="705"
     inkscape:window-x="-8"
     inkscape:window-y="-8"
     inkscape:window-maximized="1" />
  <metadata
     id="metadata7">
    <rdf:RDF>
      <cc:Work
         rdf:about="">
        <dc:format>image/svg+xml</dc:format>
        <dc:type
           rdf:resource="http://purl.org/dc/dcmitype/StillImage" />
        <dc:title></dc:title>
      </cc:Work>
    </rdf:RDF>
  </metadata>
  <g
     inkscape:label="Camada 1"
     inkscape:groupmode="layer"
     id="layer1"
     transform="translate(-231.57746,-397.02574)">
    <text
       xml:space="preserve"
       style="font-style:normal;font-variant:normal;font-weight:500;font-stretch:normal;font-size:40px;line-height:125%;font-family:Ionicons;-inkscape-font-specification:'Ionicons Medium';letter-spacing:0px;word-spacing:0px;fill:#000000;fill-opacity:1;stroke:none;stroke-width:1px;stroke-linecap:butt;stroke-linejoin:miter;stroke-opacity:1"
       x="197.14285"
       y="492.36221"
       id="text3336"
       sodipodi:linespacing="125%"><tspan
         sodipodi:role="line"
         id="tspan3338"
         x="197.14285"
         y="492.36221" /></text>
    <circle
       style="fill:#e5e5e5;fill-opacity:0.8;stroke:none;stroke-opacity:1"
       id="path4572"
       cx="249.38139"
       cy="414.82968"
       r="17.803938" />
    <path
       style="font-style:normal;font-weight:normal;font-size:40px;line-height:125%;font-family:sans-serif;letter-spacing:0px;word-spacing:0px;fill:#000000;fill-opacity:1;stroke:none;stroke-width:1px;stroke-linecap:butt;stroke-linejoin:miter;stroke-opacity:1"
       d="M 17.804688 5.6074219 C 15.408854 5.6074219 13.638021 6.3105469 12.492188 7.7167969 C 11.346354 9.0709635 10.825521 10.347005 10.929688 11.544922 C 11.033854 12.430339 11.138021 13.289714 11.242188 14.123047 C 11.242188 14.227214 11.164062 14.48763 11.007812 14.904297 C 10.903646 15.320964 10.929688 15.763672 11.085938 16.232422 C 11.294271 17.169922 11.502604 17.794922 11.710938 18.107422 C 11.919271 18.419922 12.075521 18.836589 12.179688 19.357422 C 12.440104 20.867839 12.804688 21.935547 13.273438 22.560547 C 13.742188 23.133464 13.976562 23.732422 13.976562 24.357422 L 13.976562 24.826172 C 13.976562 25.972005 13.872396 26.67513 13.664062 26.935547 C 13.455729 27.14388 12.752604 27.45638 11.554688 27.873047 C 10.669271 28.185547 9.9140625 28.445964 9.2890625 28.654297 C 7.6081872 29.287354 6.2805501 29.877022 5.2675781 30.427734 A 17.803938 17.803938 0 0 0 17.804688 35.607422 A 17.803938 17.803938 0 0 0 30.34375 30.429688 C 29.330395 29.878453 28.00306 29.288059 26.320312 28.654297 C 26.164062 28.602214 26.033854 28.55013 25.929688 28.498047 C 23.481771 27.61263 22.205729 27.117839 22.101562 27.013672 C 21.789062 26.805339 21.632812 25.919922 21.632812 24.357422 C 21.632812 23.732422 21.867188 23.133464 22.335938 22.560547 C 22.804688 21.935547 23.169271 20.867839 23.429688 19.357422 C 23.533854 18.836589 23.690104 18.419922 23.898438 18.107422 C 24.106771 17.794922 24.315104 17.169922 24.523438 16.232422 C 24.679688 15.763672 24.679688 15.320964 24.523438 14.904297 C 24.419271 14.48763 24.367188 14.227214 24.367188 14.123047 C 24.471354 13.289714 24.575521 12.430339 24.679688 11.544922 C 24.783854 10.347005 24.263021 9.0709635 23.117188 7.7167969 C 21.971354 6.3105469 20.200521 5.6074219 17.804688 5.6074219 z "
       transform="translate(231.57746,397.02574)"
       id="text3340" />
  </g>
</svg>
