<?xml version="1.0" encoding="UTF-8" standalone="no"?>
<!-- Created with Inkscape (http://www.inkscape.org/) -->

<svg
   xmlns:dc="http://purl.org/dc/elements/1.1/"
   xmlns:cc="http://creativecommons.org/ns#"
   xmlns:rdf="http://www.w3.org/1999/02/22-rdf-syntax-ns#"
   xmlns:svg="http://www.w3.org/2000/svg"
   xmlns="http://www.w3.org/2000/svg"
   xmlns:sodipodi="http://sodipodi.sourceforge.net/DTD/sodipodi-0.dtd"
   xmlns:inkscape="http://www.inkscape.org/namespaces/inkscape"
   width="71.158455mm"
   height="90.677643mm"
   viewBox="0 0 71.158455 90.677643"
   version="1.1"
   id="svg8"
   inkscape:version="0.92.2 5c3e80d, 2017-08-06"
   sodipodi:docname="ranking-cinza.svg">
  <defs
     id="defs2">
    <clipPath
       id="clipPath888"
       clipPathUnits="userSpaceOnUse">
      <path
         inkscape:connector-curvature="0"
         id="path886"
         d="M 0.06,512 H 512 V 0 H 0.06 Z" />
    </clipPath>
    <filter
       style="color-interpolation-filters:sRGB;"
       inkscape:label="Greyscale"
       id="filter964">
      <feColorMatrix
         values="0.21 0.72 0.072 0 0 0.21 0.72 0.072 0 0 0.21 0.72 0.072 0 0 0 0 0 1 0 "
         id="feColorMatrix962" />
    </filter>
    <filter
       style="color-interpolation-filters:sRGB;"
       inkscape:label="Greyscale"
       id="filter968">
      <feColorMatrix
         values="0.21 0.72 0.072 0 0 0.21 0.72 0.072 0 0 0.21 0.72 0.072 0 0 0 0 0 1 0 "
         id="feColorMatrix966" />
    </filter>
    <filter
       style="color-interpolation-filters:sRGB;"
       inkscape:label="Greyscale"
       id="filter972">
      <feColorMatrix
         values="0.21 0.72 0.072 0 0 0.21 0.72 0.072 0 0 0.21 0.72 0.072 0 0 0 0 0 1 0 "
         id="feColorMatrix970" />
    </filter>
    <filter
       style="color-interpolation-filters:sRGB;"
       inkscape:label="Greyscale"
       id="filter976">
      <feColorMatrix
         values="0.21 0.72 0.072 0 0 0.21 0.72 0.072 0 0 0.21 0.72 0.072 0 0 0 0 0 1 0 "
         id="feColorMatrix974" />
    </filter>
    <filter
       style="color-interpolation-filters:sRGB;"
       inkscape:label="Greyscale"
       id="filter980">
      <feColorMatrix
         values="0.21 0.72 0.072 0 0 0.21 0.72 0.072 0 0 0.21 0.72 0.072 0 0 0 0 0 1 0 "
         id="feColorMatrix978" />
    </filter>
    <filter
       style="color-interpolation-filters:sRGB;"
       inkscape:label="Greyscale"
       id="filter984">
      <feColorMatrix
         values="0.21 0.72 0.072 0 0 0.21 0.72 0.072 0 0 0.21 0.72 0.072 0 0 0 0 0 1 0 "
         id="feColorMatrix982" />
    </filter>
    <filter
       style="color-interpolation-filters:sRGB;"
       inkscape:label="Greyscale"
       id="filter988">
      <feColorMatrix
         values="0.21 0.72 0.072 0 0 0.21 0.72 0.072 0 0 0.21 0.72 0.072 0 0 0 0 0 1 0 "
         id="feColorMatrix986" />
    </filter>
    <filter
       style="color-interpolation-filters:sRGB;"
       inkscape:label="Greyscale"
       id="filter992">
      <feColorMatrix
         values="0.21 0.72 0.072 0 0 0.21 0.72 0.072 0 0 0.21 0.72 0.072 0 0 0 0 0 1 0 "
         id="feColorMatrix990" />
    </filter>
    <filter
       style="color-interpolation-filters:sRGB;"
       inkscape:label="Greyscale"
       id="filter996">
      <feColorMatrix
         values="0.21 0.72 0.072 0 0 0.21 0.72 0.072 0 0 0.21 0.72 0.072 0 0 0 0 0 1 0 "
         id="feColorMatrix994" />
    </filter>
    <filter
       style="color-interpolation-filters:sRGB;"
       inkscape:label="Greyscale"
       id="filter1000">
      <feColorMatrix
         values="0.21 0.72 0.072 0 0 0.21 0.72 0.072 0 0 0.21 0.72 0.072 0 0 0 0 0 1 0 "
         id="feColorMatrix998" />
    </filter>
    <filter
       style="color-interpolation-filters:sRGB;"
       inkscape:label="Greyscale"
       id="filter1004">
      <feColorMatrix
         values="0.21 0.72 0.072 0 0 0.21 0.72 0.072 0 0 0.21 0.72 0.072 0 0 0 0 0 1 0 "
         id="feColorMatrix1002" />
    </filter>
    <filter
       style="color-interpolation-filters:sRGB;"
       inkscape:label="Greyscale"
       id="filter1008">
      <feColorMatrix
         values="0.21 0.72 0.072 0 0 0.21 0.72 0.072 0 0 0.21 0.72 0.072 0 0 0 0 0 1 0 "
         id="feColorMatrix1006" />
    </filter>
    <filter
       style="color-interpolation-filters:sRGB;"
       inkscape:label="Greyscale"
       id="filter1012">
      <feColorMatrix
         values="0.21 0.72 0.072 0 0 0.21 0.72 0.072 0 0 0.21 0.72 0.072 0 0 0 0 0 1 0 "
         id="feColorMatrix1010" />
    </filter>
    <filter
       style="color-interpolation-filters:sRGB;"
       inkscape:label="Greyscale"
       id="filter1016">
      <feColorMatrix
         values="0.21 0.72 0.072 0 0 0.21 0.72 0.072 0 0 0.21 0.72 0.072 0 0 0 0 0 1 0 "
         id="feColorMatrix1014" />
    </filter>
  </defs>
  <sodipodi:namedview
     id="base"
     pagecolor="#ffffff"
     bordercolor="#666666"
     borderopacity="1.0"
     inkscape:pageopacity="0.0"
     inkscape:pageshadow="2"
     inkscape:zoom="0.98994949"
     inkscape:cx="80.443221"
     inkscape:cy="133.76856"
     inkscape:document-units="mm"
     inkscape:current-layer="g880"
     showgrid="false"
     fit-margin-top="0"
     fit-margin-left="0"
     fit-margin-right="0"
     fit-margin-bottom="0"
     inkscape:window-width="1440"
     inkscape:window-height="793"
     inkscape:window-x="0"
     inkscape:window-y="1"
     inkscape:window-maximized="1" />
  <metadata
     id="metadata5">
    <rdf:RDF>
      <cc:Work
         rdf:about="">
        <dc:format>image/svg+xml</dc:format>
        <dc:type
           rdf:resource="http://purl.org/dc/dcmitype/StillImage" />
        <dc:title></dc:title>
      </cc:Work>
    </rdf:RDF>
  </metadata>
  <g
     inkscape:label="Layer 1"
     inkscape:groupmode="layer"
     id="layer1"
     transform="translate(-76.359304,-100.62118)">
    <g
       transform="matrix(0.35277777,0,0,-0.35277777,-120.55979,239.14444)"
       inkscape:label="242. Page Rank"
       id="g880">
      <path
         inkscape:connector-curvature="0"
         id="path894"
         style="fill:#234959;fill-opacity:1;fill-rule:nonzero;stroke:none;filter:url(#filter1016)"
         d="m 558.19587,392.66437 h 201.709 v -257.039 h -201.709 z" />
      <path
         inkscape:connector-curvature="0"
         id="path896"
         style="fill:#20414f;fill-opacity:1;fill-rule:nonzero;stroke:none;filter:url(#filter1012)"
         d="m 759.90487,135.62537 h -201.709 l 9.687,12.345 v -0.001 h 182.337 v 232.351 l 9.685,12.344 v -257.039" />
      <path
         inkscape:connector-curvature="0"
         id="path898"
         style="fill:#ffffff;fill-opacity:1;fill-rule:nonzero;stroke:none;filter:url(#filter1008)"
         d="m 567.88287,380.32037 h 182.337 v -232.351 h -182.337 z" />
      <path
         inkscape:connector-curvature="0"
         id="path900"
         style="fill:#234959;fill-opacity:1;fill-rule:nonzero;stroke:none;filter:url(#filter1004)"
         d="m 642.26487,316.32737 c 0,-4.06 -3.321,-7.382 -7.382,-7.382 h -36.637 c -4.06,0 -7.381,3.322 -7.381,7.382 v 36.637 c 0,4.06 3.321,7.381 7.381,7.381 h 36.637 c 4.061,0 7.382,-3.321 7.382,-7.381 v -36.637" />
      <path
         inkscape:connector-curvature="0"
         id="path902"
         style="fill:#f5f5f5;fill-opacity:1;fill-rule:nonzero;stroke:none;filter:url(#filter1000)"
         d="m 615.45887,318.21037 v 25.295 h -4.22 v 3.46 c 1.189,0.14 2.32,0.59 3.394,1.35 1.075,0.76 1.849,1.682 2.32,2.765 h 3.46 v -32.87 h -4.954" />
      <path
         inkscape:connector-curvature="0"
         id="path904"
         style="fill:#234959;fill-opacity:1;fill-rule:nonzero;stroke:none;filter:url(#filter996)"
         d="m 642.26487,245.82637 c 0,-4.06 -3.321,-7.381 -7.382,-7.381 h -36.637 c -4.06,0 -7.381,3.321 -7.381,7.381 v 36.637 c 0,4.06 3.321,7.381 7.381,7.381 h 36.637 c 4.061,0 7.382,-3.321 7.382,-7.381 v -36.637" />
      <path
         inkscape:connector-curvature="0"
         id="path906"
         style="fill:#f5f5f5;fill-opacity:1;fill-rule:nonzero;stroke:none;filter:url(#filter992)"
         d="m 608.57087,273.05037 c 0,3.11 0.838,5.487 2.516,7.13 1.45,1.45 3.355,2.176 5.714,2.176 2.167,0 4.015,-0.812 5.544,-2.437 1.529,-1.625 2.294,-3.523 2.294,-5.689 0,-2.237 -0.498,-4.395 -1.494,-6.475 -0.541,-1.152 -1.809,-3.137 -3.801,-5.95 -0.542,-0.769 -1.346,-1.965 -2.412,-3.591 l -0.891,-1.336 c -0.577,-0.875 -1.013,-1.564 -1.31,-2.071 -0.141,-0.259 -0.209,-0.417 -0.209,-0.473 h 9.724 v -4.847 h -15.754 v 4.542 c 0,0.105 0.361,0.709 1.081,1.813 0.333,0.505 0.71,1.063 1.132,1.675 l 1.29,1.856 c 0.752,1.03 1.933,2.683 3.542,4.953 1.523,2.132 2.66,4.062 3.412,5.79 0.613,1.416 0.918,2.735 0.918,3.957 0,0.997 -0.279,1.844 -0.837,2.543 -0.612,0.734 -1.399,1.1 -2.36,1.1 -1.381,0 -2.359,-0.795 -2.935,-2.385 -0.194,-0.524 -0.288,-1.154 -0.288,-1.886 v -1.259 h -4.876 v 0.864" />
      <path
         inkscape:connector-curvature="0"
         id="path908"
         style="fill:#234959;fill-opacity:1;fill-rule:nonzero;stroke:none;filter:url(#filter988)"
         d="m 642.26487,174.27037 c 0,-4.06 -3.321,-7.381 -7.382,-7.381 h -36.637 c -4.06,0 -7.381,3.321 -7.381,7.381 v 36.637 c 0,4.06 3.321,7.381 7.381,7.381 h 36.637 c 4.061,0 7.382,-3.321 7.382,-7.381 v -36.637" />
      <path
         inkscape:connector-curvature="0"
         id="path910"
         style="fill:#f5f5f5;fill-opacity:1;fill-rule:nonzero;stroke:none;filter:url(#filter984)"
         d="m 616.23687,182.62137 c 2.271,0 3.408,1.056 3.408,3.168 v 1.938 c 0,3.369 -1.766,5.053 -5.295,5.053 v 4.242 c 1.904,0 3.31,0.533 4.221,1.597 0.837,0.96 1.257,2.304 1.257,4.033 v 0.758 c 0,2.149 -0.943,3.221 -2.831,3.221 -1.049,0 -1.817,-0.399 -2.307,-1.199 -0.367,-0.608 -0.55,-1.398 -0.55,-2.37 v -0.861 h -4.85 v 0.761 c 0,2.341 0.595,4.246 1.783,5.714 1.345,1.678 3.242,2.517 5.688,2.517 2.324,0 4.185,-0.788 5.583,-2.36 1.258,-1.415 1.888,-3.18 1.888,-5.295 v -1.388 c 0,-2.045 -0.613,-3.811 -1.835,-5.295 -0.525,-0.63 -1.137,-1.163 -1.835,-1.6 1.468,-0.821 2.604,-2.071 3.408,-3.748 0.419,-0.856 0.629,-1.896 0.629,-3.119 v -2.596 c 0,-2.429 -0.831,-4.42 -2.49,-5.975 -1.591,-1.504 -3.505,-2.255 -5.742,-2.255 -2.183,0 -4.036,0.768 -5.556,2.307 -1.521,1.537 -2.281,3.381 -2.281,5.531 v 0.812 l 4.718,0.367 0.106,-1.153 c 0.069,-0.821 0.362,-1.494 0.878,-2.019 0.514,-0.523 1.183,-0.786 2.005,-0.786" />
      <path
         inkscape:connector-curvature="0"
         id="path912"
         style="fill:#f68916;fill-opacity:1;fill-rule:nonzero;stroke:none;filter:url(#filter980)"
         d="m 666.88787,392.66437 h 67.247 v -79.87 h -67.247 z" />
      <path
         inkscape:connector-curvature="0"
         id="path914"
         style="fill:#dd7b19;fill-opacity:1;fill-rule:nonzero;stroke:none;filter:url(#filter976)"
         d="m 734.13487,312.79437 v 0 l -12.874,1.849 -10.365,1.489 -10.425,21.035 -10.356,-21.07 -22.476,-3.303 h -0.751 l 67.247,79.87 v -79.87" />
      <path
         inkscape:connector-curvature="0"
         id="path916"
         style="fill:#eae32e;fill-opacity:1;fill-rule:nonzero;stroke:none;filter:url(#filter972)"
         d="m 710.89587,316.13237 23.239,-3.338 -16.785,-16.415 4.007,-23.134 -20.799,10.891 -20.762,-10.959 3.931,23.146 -16.839,16.36 23.227,3.414 10.356,21.07 10.425,-21.035" />
      <path
         inkscape:connector-curvature="0"
         id="path918"
         style="fill:#c66e1c;fill-opacity:1;fill-rule:nonzero;stroke:none;filter:url(#filter968)"
         d="m 734.13487,312.79437 -12.874,1.849 12.874,-1.849" />
      <path
         inkscape:connector-curvature="0"
         id="path920"
         style="fill:#d0c92a;fill-opacity:1;fill-rule:nonzero;stroke:none;filter:url(#filter964)"
         d="m 679.79587,273.17737 41.465,41.466 12.874,-1.849 -16.785,-16.415 4.007,-23.134 -20.798,10.891 h -10e-4 l -20.762,-10.959" />
    </g>
  </g>
</svg>
